<svg xmlns="http://www.w3.org/2000/svg" width="957" height="509" viewBox="-479 -312 957 509">
<rect x="-479" y="-312" width="957" height="509" fill="white"/>
<text x="-436.7" y="-269.8" font-family="Arial" font-size="18" fill="#111">Hexflower (radius=2, seed=123, count=3)</text>
<polygon points="-296.2,-247.0 -296.2,-209.0 -329.1,-190.0 -362.0,-209.0 -362.0,-247.0 -329.1,-266.0" fill="#2E8B57" stroke="#333333" stroke-width="2.00"/>
<text x="-329.1" y="-230.0" font-family="Arial" font-size="12" text-anchor="middle" fill="#111">-3,-4</text>
<text x="-329.1" y="-214.0" font-family="Arial" font-size="14" text-anchor="middle" fill="#111">F</text>
<polygon points="-230.4,-247.0 -230.4,-209.0 -263.3,-190.0 -296.2,-209.0 -296.2,-247.0 -263.3,-266.0" fill="#2E8B57" stroke="#333333" stroke-width="2.00"/>
<text x="-263.3" y="-230.0" font-family="Arial" font-size="12" text-anchor="middle" fill="#111">-2,-4</text>
<text x="-263.3" y="-214.0" font-family="Arial" font-size="14" text-anchor="middle" fill="#111">F</text>
<polygon points="-164.5,-247.0 -164.5,-209.0 -197.5,-190.0 -230.4,-209.0 -230.4,-247.0 -197.5,-266.0" fill="#A9A9A9" stroke="#333333" stroke-width="2.00"/>
<text x="-197.5" y="-230.0" font-family="Arial" font-size="12" text-anchor="middle" fill="#111">-1,-4</text>
<text x="-197.5" y="-214.0" font-family="Arial" font-size="14" text-anchor="middle" fill="#111">M</text>
<polygon points="230.4,-247.0 230.4,-209.0 197.5,-190.0 164.5,-209.0 164.5,-247.0 197.5,-266.0" fill="#A9A9A9" stroke="#333333" stroke-width="2.00"/>
<text x="197.5" y="-230.0" font-family="Arial" font-size="12" text-anchor="middle" fill="#111">5,-4</text>
<text x="197.5" y="-214.0" font-family="Arial" font-size="14" text-anchor="middle" fill="#111">M</text>
<polygon points="296.2,-247.0 296.2,-209.0 263.3,-190.0 230.4,-209.0 230.4,-247.0 263.3,-266.0" fill="#C2B280" stroke="#333333" stroke-width="2.00"/>
<text x="263.3" y="-230.0" font-family="Arial" font-size="12" text-anchor="middle" fill="#111">6,-4</text>
<text x="263.3" y="-214.0" font-family="Arial" font-size="14" text-anchor="middle" fill="#111">H</text>
<polygon points="362.0,-247.0 362.0,-209.0 329.1,-190.0 296.2,-209.0 296.2,-247.0 329.1,-266.0" fill="#5F9EA0" stroke="#333333" stroke-width="2.00"/>
<text x="329.1" y="-230.0" font-family="Arial" font-size="12" text-anchor="middle" fill="#111">7,-4</text>
<text x="329.1" y="-214.0" font-family="Arial" font-size="14" text-anchor="middle" fill="#111">M</text>
<polygon points="-329.1,-190.0 -329.1,-152.0 -362.0,-133.0 -394.9,-152.0 -394.9,-190.0 -362.0,-209.0" fill="#2E8B57" stroke="#333333" stroke-width="2.00"/>
<text x="-362.0" y="-173.0" font-family="Arial" font-size="12" text-anchor="middle" fill="#111">-4,-3</text>
<text x="-362.0" y="-157.0" font-family="Arial" font-size="14" text-anchor="middle" fill="#111">F</text>
<polygon points="-263.3,-190.0 -263.3,-152.0 -296.2,-133.0 -329.1,-152.0 -329.1,-190.0 -296.2,-209.0" fill="#2E8B57" stroke="#333333" stroke-width="2.00"/>
<text x="-296.2" y="-173.0" font-family="Arial" font-size="12" text-anchor="middle" fill="#111">-3,-3</text>
<text x="-296.2" y="-157.0" font-family="Arial" font-size="14" text-anchor="middle" fill="#111">F</text>
<polygon points="-197.5,-190.0 -197.5,-152.0 -230.4,-133.0 -263.3,-152.0 -263.3,-190.0 -230.4,-209.0" fill="#A9A9A9" stroke="#333333" stroke-width="2.00"/>
<text x="-230.4" y="-173.0" font-family="Arial" font-size="12" text-anchor="middle" fill="#111">-2,-3</text>
<text x="-230.4" y="-157.0" font-family="Arial" font-size="14" text-anchor="middle" fill="#111">M</text>
<polygon points="-131.6,-190.0 -131.6,-152.0 -164.5,-133.0 -197.5,-152.0 -197.5,-190.0 -164.5,-209.0" fill="#A9A9A9" stroke="#333333" stroke-width="2.00"/>
<text x="-164.5" y="-173.0" font-family="Arial" font-size="12" text-anchor="middle" fill="#111">-1,-3</text>
<text x="-164.5" y="-157.0" font-family="Arial" font-size="14" text-anchor="middle" fill="#111">M</text>
<polygon points="197.5,-190.0 197.5,-152.0 164.5,-133.0 131.6,-152.0 131.6,-190.0 164.5,-209.0" fill="#A9A9A9" stroke="#333333" stroke-width="2.00"/>
<text x="164.5" y="-173.0" font-family="Arial" font-size="12" text-anchor="middle" fill="#111">4,-3</text>
<text x="164.5" y="-157.0" font-family="Arial" font-size="14" text-anchor="middle" fill="#111">M</text>
<polygon points="263.3,-190.0 263.3,-152.0 230.4,-133.0 197.5,-152.0 197.5,-190.0 230.4,-209.0" fill="#A9A9A9" stroke="#333333" stroke-width="2.00"/>
<text x="230.4" y="-173.0" font-family="Arial" font-size="12" text-anchor="middle" fill="#111">5,-3</text>
<text x="230.4" y="-157.0" font-family="Arial" font-size="14" text-anchor="middle" fill="#111">M</text>
<polygon points="329.1,-190.0 329.1,-152.0 296.2,-133.0 263.3,-152.0 263.3,-190.0 296.2,-209.0" fill="#5F9EA0" stroke="#333333" stroke-width="2.00"/>
<text x="296.2" y="-173.0" font-family="Arial" font-size="12" text-anchor="middle" fill="#111">6,-3</text>
<text x="296.2" y="-157.0" font-family="Arial" font-size="14" text-anchor="middle" fill="#111">M</text>
<polygon points="394.9,-190.0 394.9,-152.0 362.0,-133.0 329.1,-152.0 329.1,-190.0 362.0,-209.0" fill="#5F9EA0" stroke="#333333" stroke-width="2.00"/>
<text x="362.0" y="-173.0" font-family="Arial" font-size="12" text-anchor="middle" fill="#111">7,-3</text>
<text x="362.0" y="-157.0" font-family="Arial" font-size="14" text-anchor="middle" fill="#111">M</text>
<polygon points="-362.0,-133.0 -362.0,-95.0 -394.9,-76.0 -427.8,-95.0 -427.8,-133.0 -394.9,-152.0" fill="#2E8B57" stroke="#333333" stroke-width="2.00"/>
<text x="-394.9" y="-116.0" font-family="Arial" font-size="12" text-anchor="middle" fill="#111">-5,-2</text>
<text x="-394.9" y="-100.0" font-family="Arial" font-size="14" text-anchor="middle" fill="#111">F</text>
<polygon points="-296.2,-133.0 -296.2,-95.0 -329.1,-76.0 -362.0,-95.0 -362.0,-133.0 -329.1,-152.0" fill="#9ACD32" stroke="#333333" stroke-width="2.00"/>
<text x="-329.1" y="-116.0" font-family="Arial" font-size="12" text-anchor="middle" fill="#111">-4,-2</text>
<text x="-329.1" y="-100.0" font-family="Arial" font-size="14" text-anchor="middle" fill="#111">G</text>
<polygon points="-230.4,-133.0 -230.4,-95.0 -263.3,-76.0 -296.2,-95.0 -296.2,-133.0 -263.3,-152.0" fill="#9ACD32" stroke="#333333" stroke-width="2.00"/>
<text x="-263.3" y="-116.0" font-family="Arial" font-size="12" text-anchor="middle" fill="#111">-3,-2</text>
<text x="-263.3" y="-100.0" font-family="Arial" font-size="14" text-anchor="middle" fill="#111">G</text>
<polygon points="-164.5,-133.0 -164.5,-95.0 -197.5,-76.0 -230.4,-95.0 -230.4,-133.0 -197.5,-152.0" fill="#9ACD32" stroke="#333333" stroke-width="2.00"/>
<text x="-197.5" y="-116.0" font-family="Arial" font-size="12" text-anchor="middle" fill="#111">-2,-2</text>
<text x="-197.5" y="-100.0" font-family="Arial" font-size="14" text-anchor="middle" fill="#111">G</text>
<polygon points="-98.7,-133.0 -98.7,-95.0 -131.6,-76.0 -164.5,-95.0 -164.5,-133.0 -131.6,-152.0" fill="#9ACD32" stroke="#333333" stroke-width="2.00"/>
<text x="-131.6" y="-116.0" font-family="Arial" font-size="12" text-anchor="middle" fill="#111">-1,-2</text>
<text x="-131.6" y="-100.0" font-family="Arial" font-size="14" text-anchor="middle" fill="#111">G</text>
<polygon points="-32.9,-133.0 -32.9,-95.0 -65.8,-76.0 -98.7,-95.0 -98.7,-133.0 -65.8,-152.0" fill="#9ACD32" stroke="#333333" stroke-width="2.00"/>
<text x="-65.8" y="-116.0" font-family="Arial" font-size="12" text-anchor="middle" fill="#111">0,-2</text>
<text x="-65.8" y="-100.0" font-family="Arial" font-size="14" text-anchor="middle" fill="#111">G</text>
<polygon points="32.9,-133.0 32.9,-95.0 0.0,-76.0 -32.9,-95.0 -32.9,-133.0 -0.0,-152.0" fill="#9ACD32" stroke="#333333" stroke-width="2.00"/>
<text x="0.0" y="-116.0" font-family="Arial" font-size="12" text-anchor="middle" fill="#111">1,-2</text>
<text x="0.0" y="-100.0" font-family="Arial" font-size="14" text-anchor="middle" fill="#111">G</text>
<polygon points="98.7,-133.0 98.7,-95.0 65.8,-76.0 32.9,-95.0 32.9,-133.0 65.8,-152.0" fill="#9ACD32" stroke="#333333" stroke-width="2.00"/>
<text x="65.8" y="-116.0" font-family="Arial" font-size="12" text-anchor="middle" fill="#111">2,-2</text>
<text x="65.8" y="-100.0" font-family="Arial" font-size="14" text-anchor="middle" fill="#111">G</text>
<polygon points="164.5,-133.0 164.5,-95.0 131.6,-76.0 98.7,-95.0 98.7,-133.0 131.6,-152.0" fill="#9ACD32" stroke="#333333" stroke-width="2.00"/>
<text x="131.6" y="-116.0" font-family="Arial" font-size="12" text-anchor="middle" fill="#111">3,-2</text>
<text x="131.6" y="-100.0" font-family="Arial" font-size="14" text-anchor="middle" fill="#111">G</text>
<polygon points="230.4,-133.0 230.4,-95.0 197.5,-76.0 164.5,-95.0 164.5,-133.0 197.5,-152.0" fill="#C2B280" stroke="#333333" stroke-width="2.00"/>
<text x="197.5" y="-116.0" font-family="Arial" font-size="12" text-anchor="middle" fill="#111">4,-2</text>
<text x="197.5" y="-100.0" font-family="Arial" font-size="14" text-anchor="middle" fill="#111">H</text>
<polygon points="296.2,-133.0 296.2,-95.0 263.3,-76.0 230.4,-95.0 230.4,-133.0 263.3,-152.0" fill="#9ACD32" stroke="#333333" stroke-width="2.00"/>
<text x="263.3" y="-116.0" font-family="Arial" font-size="12" text-anchor="middle" fill="#111">5,-2</text>
<text x="263.3" y="-100.0" font-family="Arial" font-size="14" text-anchor="middle" fill="#111">G</text>
<polygon points="362.0,-133.0 362.0,-95.0 329.1,-76.0 296.2,-95.0 296.2,-133.0 329.1,-152.0" fill="#2E8B57" stroke="#333333" stroke-width="2.00"/>
<text x="329.1" y="-116.0" font-family="Arial" font-size="12" text-anchor="middle" fill="#111">6,-2</text>
<text x="329.1" y="-100.0" font-family="Arial" font-size="14" text-anchor="middle" fill="#111">F</text>
<polygon points="427.8,-133.0 427.8,-95.0 394.9,-76.0 362.0,-95.0 362.0,-133.0 394.9,-152.0" fill="#2E8B57" stroke="#333333" stroke-width="2.00"/>
<text x="394.9" y="-116.0" font-family="Arial" font-size="12" text-anchor="middle" fill="#111">7,-2</text>
<text x="394.9" y="-100.0" font-family="Arial" font-size="14" text-anchor="middle" fill="#111">F</text>
<polygon points="-329.1,-76.0 -329.1,-38.0 -362.0,-19.0 -394.9,-38.0 -394.9,-76.0 -362.0,-95.0" fill="#A9A9A9" stroke="#333333" stroke-width="2.00"/>
<text x="-362.0" y="-59.0" font-family="Arial" font-size="12" text-anchor="middle" fill="#111">-5,-1</text>
<text x="-362.0" y="-43.0" font-family="Arial" font-size="14" text-anchor="middle" fill="#111">M</text>
<polygon points="-263.3,-76.0 -263.3,-38.0 -296.2,-19.0 -329.1,-38.0 -329.1,-76.0 -296.2,-95.0" fill="#9ACD32" stroke="#333333" stroke-width="2.00"/>
<text x="-296.2" y="-59.0" font-family="Arial" font-size="12" text-anchor="middle" fill="#111">-4,-1</text>
<text x="-296.2" y="-43.0" font-family="Arial" font-size="14" text-anchor="middle" fill="#111">G</text>
<polygon points="-197.5,-76.0 -197.5,-38.0 -230.4,-19.0 -263.3,-38.0 -263.3,-76.0 -230.4,-95.0" fill="#2E8B57" stroke="#333333" stroke-width="2.00"/>
<text x="-230.4" y="-59.0" font-family="Arial" font-size="12" text-anchor="middle" fill="#111">-3,-1</text>
<text x="-230.4" y="-43.0" font-family="Arial" font-size="14" text-anchor="middle" fill="#111">F</text>
<polygon points="-131.6,-76.0 -131.6,-38.0 -164.5,-19.0 -197.5,-38.0 -197.5,-76.0 -164.5,-95.0" fill="#9ACD32" stroke="#333333" stroke-width="2.00"/>
<text x="-164.5" y="-59.0" font-family="Arial" font-size="12" text-anchor="middle" fill="#111">-2,-1</text>
<text x="-164.5" y="-43.0" font-family="Arial" font-size="14" text-anchor="middle" fill="#111">G</text>
<polygon points="-65.8,-76.0 -65.8,-38.0 -98.7,-19.0 -131.6,-38.0 -131.6,-76.0 -98.7,-95.0" fill="#5F9EA0" stroke="#333333" stroke-width="2.00"/>
<text x="-98.7" y="-59.0" font-family="Arial" font-size="12" text-anchor="middle" fill="#111">-1,-1</text>
<text x="-98.7" y="-43.0" font-family="Arial" font-size="14" text-anchor="middle" fill="#111">M</text>
<polygon points="0.0,-76.0 0.0,-38.0 -32.9,-19.0 -65.8,-38.0 -65.8,-76.0 -32.9,-95.0" fill="#9ACD32" stroke="#333333" stroke-width="2.00"/>
<text x="-32.9" y="-59.0" font-family="Arial" font-size="12" text-anchor="middle" fill="#111">0,-1</text>
<text x="-32.9" y="-43.0" font-family="Arial" font-size="14" text-anchor="middle" fill="#111">G</text>
<polygon points="65.8,-76.0 65.8,-38.0 32.9,-19.0 -0.0,-38.0 0.0,-76.0 32.9,-95.0" fill="#9ACD32" stroke="#333333" stroke-width="2.00"/>
<text x="32.9" y="-59.0" font-family="Arial" font-size="12" text-anchor="middle" fill="#111">1,-1</text>
<text x="32.9" y="-43.0" font-family="Arial" font-size="14" text-anchor="middle" fill="#111">G</text>
<polygon points="131.6,-76.0 131.6,-38.0 98.7,-19.0 65.8,-38.0 65.8,-76.0 98.7,-95.0" fill="#9ACD32" stroke="#333333" stroke-width="2.00"/>
<text x="98.7" y="-59.0" font-family="Arial" font-size="12" text-anchor="middle" fill="#111">2,-1</text>
<text x="98.7" y="-43.0" font-family="Arial" font-size="14" text-anchor="middle" fill="#111">G</text>
<polygon points="197.5,-76.0 197.5,-38.0 164.5,-19.0 131.6,-38.0 131.6,-76.0 164.5,-95.0" fill="#9ACD32" stroke="#333333" stroke-width="2.00"/>
<text x="164.5" y="-59.0" font-family="Arial" font-size="12" text-anchor="middle" fill="#111">3,-1</text>
<text x="164.5" y="-43.0" font-family="Arial" font-size="14" text-anchor="middle" fill="#111">G</text>
<polygon points="263.3,-76.0 263.3,-38.0 230.4,-19.0 197.5,-38.0 197.5,-76.0 230.4,-95.0" fill="#2E8B57" stroke="#333333" stroke-width="2.00"/>
<text x="230.4" y="-59.0" font-family="Arial" font-size="12" text-anchor="middle" fill="#111">4,-1</text>
<text x="230.4" y="-43.0" font-family="Arial" font-size="14" text-anchor="middle" fill="#111">F</text>
<polygon points="329.1,-76.0 329.1,-38.0 296.2,-19.0 263.3,-38.0 263.3,-76.0 296.2,-95.0" fill="#5F9EA0" stroke="#333333" stroke-width="2.00"/>
<text x="296.2" y="-59.0" font-family="Arial" font-size="12" text-anchor="middle" fill="#111">5,-1</text>
<text x="296.2" y="-43.0" font-family="Arial" font-size="14" text-anchor="middle" fill="#111">M</text>
<polygon points="394.9,-76.0 394.9,-38.0 362.0,-19.0 329.1,-38.0 329.1,-76.0 362.0,-95.0" fill="#5F9EA0" stroke="#333333" stroke-width="2.00"/>
<text x="362.0" y="-59.0" font-family="Arial" font-size="12" text-anchor="middle" fill="#111">6,-1</text>
<text x="362.0" y="-43.0" font-family="Arial" font-size="14" text-anchor="middle" fill="#111">M</text>
<polygon points="-296.2,-19.0 -296.2,19.0 -329.1,38.0 -362.0,19.0 -362.0,-19.0 -329.1,-38.0" fill="#9ACD32" stroke="#333333" stroke-width="2.00"/>
<text x="-329.1" y="-2.0" font-family="Arial" font-size="12" text-anchor="middle" fill="#111">-5,0</text>
<text x="-329.1" y="14.0" font-family="Arial" font-size="14" text-anchor="middle" fill="#111">G</text>
<polygon points="-230.4,-19.0 -230.4,19.0 -263.3,38.0 -296.2,19.0 -296.2,-19.0 -263.3,-38.0" fill="#9ACD32" stroke="#333333" stroke-width="2.00"/>
<text x="-263.3" y="-2.0" font-family="Arial" font-size="12" text-anchor="middle" fill="#111">-4,0</text>
<text x="-263.3" y="14.0" font-family="Arial" font-size="14" text-anchor="middle" fill="#111">G</text>
<polygon points="-164.5,-19.0 -164.5,19.0 -197.5,38.0 -230.4,19.0 -230.4,-19.0 -197.5,-38.0" fill="#C2B280" stroke="#333333" stroke-width="2.00"/>
<text x="-197.5" y="-2.0" font-family="Arial" font-size="12" text-anchor="middle" fill="#111">-3,0</text>
<text x="-197.5" y="14.0" font-family="Arial" font-size="14" text-anchor="middle" fill="#111">H</text>
<polygon points="-98.7,-19.0 -98.7,19.0 -131.6,38.0 -164.5,19.0 -164.5,-19.0 -131.6,-38.0" fill="#9ACD32" stroke="#333333" stroke-width="2.00"/>
<text x="-131.6" y="-2.0" font-family="Arial" font-size="12" text-anchor="middle" fill="#111">-2,0</text>
<text x="-131.6" y="14.0" font-family="Arial" font-size="14" text-anchor="middle" fill="#111">G</text>
<polygon points="-32.9,-19.0 -32.9,19.0 -65.8,38.0 -98.7,19.0 -98.7,-19.0 -65.8,-38.0" fill="#9ACD32" stroke="#333333" stroke-width="2.00"/>
<text x="-65.8" y="-2.0" font-family="Arial" font-size="12" text-anchor="middle" fill="#111">-1,0</text>
<text x="-65.8" y="14.0" font-family="Arial" font-size="14" text-anchor="middle" fill="#111">G</text>
<polygon points="32.9,-19.0 32.9,19.0 0.0,38.0 -32.9,19.0 -32.9,-19.0 -0.0,-38.0" fill="#9ACD32" stroke="#333333" stroke-width="2.00"/>
<text x="0.0" y="-2.0" font-family="Arial" font-size="12" text-anchor="middle" fill="#111">0,0</text>
<text x="0.0" y="14.0" font-family="Arial" font-size="14" text-anchor="middle" fill="#111">G</text>
<polygon points="98.7,-19.0 98.7,19.0 65.8,38.0 32.9,19.0 32.9,-19.0 65.8,-38.0" fill="#2E8B57" stroke="#333333" stroke-width="2.00"/>
<text x="65.8" y="-2.0" font-family="Arial" font-size="12" text-anchor="middle" fill="#111">1,0</text>
<text x="65.8" y="14.0" font-family="Arial" font-size="14" text-anchor="middle" fill="#111">F</text>
<polygon points="164.5,-19.0 164.5,19.0 131.6,38.0 98.7,19.0 98.7,-19.0 131.6,-38.0" fill="#9ACD32" stroke="#333333" stroke-width="2.00"/>
<text x="131.6" y="-2.0" font-family="Arial" font-size="12" text-anchor="middle" fill="#111">2,0</text>
<text x="131.6" y="14.0" font-family="Arial" font-size="14" text-anchor="middle" fill="#111">G</text>
<polygon points="230.4,-19.0 230.4,19.0 197.5,38.0 164.5,19.0 164.5,-19.0 197.5,-38.0" fill="#5F9EA0" stroke="#333333" stroke-width="2.00"/>
<text x="197.5" y="-2.0" font-family="Arial" font-size="12" text-anchor="middle" fill="#111">3,0</text>
<text x="197.5" y="14.0" font-family="Arial" font-size="14" text-anchor="middle" fill="#111">M</text>
<polygon points="296.2,-19.0 296.2,19.0 263.3,38.0 230.4,19.0 230.4,-19.0 263.3,-38.0" fill="#2E8B57" stroke="#333333" stroke-width="2.00"/>
<text x="263.3" y="-2.0" font-family="Arial" font-size="12" text-anchor="middle" fill="#111">4,0</text>
<text x="263.3" y="14.0" font-family="Arial" font-size="14" text-anchor="middle" fill="#111">F</text>
<polygon points="362.0,-19.0 362.0,19.0 329.1,38.0 296.2,19.0 296.2,-19.0 329.1,-38.0" fill="#9ACD32" stroke="#333333" stroke-width="2.00"/>
<text x="329.1" y="-2.0" font-family="Arial" font-size="12" text-anchor="middle" fill="#111">5,0</text>
<text x="329.1" y="14.0" font-family="Arial" font-size="14" text-anchor="middle" fill="#111">G</text>
<polygon points="-65.8,38.0 -65.8,76.0 -98.7,95.0 -131.6,76.0 -131.6,38.0 -98.7,19.0" fill="#9ACD32" stroke="#333333" stroke-width="2.00"/>
<text x="-98.7" y="55.0" font-family="Arial" font-size="12" text-anchor="middle" fill="#111">-2,1</text>
<text x="-98.7" y="71.0" font-family="Arial" font-size="14" text-anchor="middle" fill="#111">G</text>
<polygon points="0.0,38.0 0.0,76.0 -32.9,95.0 -65.8,76.0 -65.8,38.0 -32.9,19.0" fill="#9ACD32" stroke="#333333" stroke-width="2.00"/>
<text x="-32.9" y="55.0" font-family="Arial" font-size="12" text-anchor="middle" fill="#111">-1,1</text>
<text x="-32.9" y="71.0" font-family="Arial" font-size="14" text-anchor="middle" fill="#111">G</text>
<polygon points="65.8,38.0 65.8,76.0 32.9,95.0 -0.0,76.0 0.0,38.0 32.9,19.0" fill="#9ACD32" stroke="#333333" stroke-width="2.00"/>
<text x="32.9" y="55.0" font-family="Arial" font-size="12" text-anchor="middle" fill="#111">0,1</text>
<text x="32.9" y="71.0" font-family="Arial" font-size="14" text-anchor="middle" fill="#111">G</text>
<polygon points="131.6,38.0 131.6,76.0 98.7,95.0 65.8,76.0 65.8,38.0 98.7,19.0" fill="#9ACD32" stroke="#333333" stroke-width="2.00"/>
<text x="98.7" y="55.0" font-family="Arial" font-size="12" text-anchor="middle" fill="#111">1,1</text>
<text x="98.7" y="71.0" font-family="Arial" font-size="14" text-anchor="middle" fill="#111">G</text>
<polygon points="-32.9,95.0 -32.9,133.0 -65.8,152.0 -98.7,133.0 -98.7,95.0 -65.8,76.0" fill="#2E8B57" stroke="#333333" stroke-width="2.00"/>
<text x="-65.8" y="112.0" font-family="Arial" font-size="12" text-anchor="middle" fill="#111">-2,2</text>
<text x="-65.8" y="128.0" font-family="Arial" font-size="14" text-anchor="middle" fill="#111">F</text>
<polygon points="32.9,95.0 32.9,133.0 0.0,152.0 -32.9,133.0 -32.9,95.0 -0.0,76.0" fill="#5F9EA0" stroke="#333333" stroke-width="2.00"/>
<text x="0.0" y="112.0" font-family="Arial" font-size="12" text-anchor="middle" fill="#111">-1,2</text>
<text x="0.0" y="128.0" font-family="Arial" font-size="14" text-anchor="middle" fill="#111">M</text>
<polygon points="98.7,95.0 98.7,133.0 65.8,152.0 32.9,133.0 32.9,95.0 65.8,76.0" fill="#5F9EA0" stroke="#333333" stroke-width="2.00"/>
<text x="65.8" y="112.0" font-family="Arial" font-size="12" text-anchor="middle" fill="#111">0,2</text>
<text x="65.8" y="128.0" font-family="Arial" font-size="14" text-anchor="middle" fill="#111">M</text>
</svg>