<svg xmlns="http://www.w3.org/2000/svg" width="1089" height="965" viewBox="-544 -483 1089 965">
<rect x="-544" y="-483" width="1089" height="965" fill="white"/>
<text x="-502.5" y="-440.8" font-family="Arial" font-size="18" fill="#111">Hexflower-of-Hexflowers (snowflake_radius=2, meta_radius=1, seed=123)</text>
<polygon points="-197.5,-418.0 -197.5,-380.0 -230.4,-361.0 -263.3,-380.0 -263.3,-418.0 -230.4,-437.0" fill="#2E8B57" stroke="#333333" stroke-width="2.00"/>
<text x="-230.4" y="-401.0" font-family="Arial" font-size="12" text-anchor="middle" fill="#111">0,-7</text>
<text x="-230.4" y="-383.0" font-family="Arial" font-size="11" text-anchor="middle" fill="#111">forest</text>
<polygon points="-131.6,-418.0 -131.6,-380.0 -164.5,-361.0 -197.5,-380.0 -197.5,-418.0 -164.5,-437.0" fill="#2E8B57" stroke="#333333" stroke-width="2.00"/>
<text x="-164.5" y="-401.0" font-family="Arial" font-size="12" text-anchor="middle" fill="#111">1,-7</text>
<text x="-164.5" y="-383.0" font-family="Arial" font-size="11" text-anchor="middle" fill="#111">forest</text>
<polygon points="-65.8,-418.0 -65.8,-380.0 -98.7,-361.0 -131.6,-380.0 -131.6,-418.0 -98.7,-437.0" fill="#C2B280" stroke="#333333" stroke-width="2.00"/>
<text x="-98.7" y="-401.0" font-family="Arial" font-size="12" text-anchor="middle" fill="#111">2,-7</text>
<text x="-98.7" y="-383.0" font-family="Arial" font-size="11" text-anchor="middle" fill="#111">hills</text>
<polygon points="131.6,-418.0 131.6,-380.0 98.7,-361.0 65.8,-380.0 65.8,-418.0 98.7,-437.0" fill="#9ACD32" stroke="#333333" stroke-width="2.00"/>
<text x="98.7" y="-401.0" font-family="Arial" font-size="12" text-anchor="middle" fill="#111">5,-7</text>
<text x="98.7" y="-383.0" font-family="Arial" font-size="11" text-anchor="middle" fill="#111">grassland</text>
<polygon points="197.5,-418.0 197.5,-380.0 164.5,-361.0 131.6,-380.0 131.6,-418.0 164.5,-437.0" fill="#C2B280" stroke="#333333" stroke-width="2.00"/>
<text x="164.5" y="-401.0" font-family="Arial" font-size="12" text-anchor="middle" fill="#111">6,-7</text>
<text x="164.5" y="-383.0" font-family="Arial" font-size="11" text-anchor="middle" fill="#111">hills</text>
<polygon points="263.3,-418.0 263.3,-380.0 230.4,-361.0 197.5,-380.0 197.5,-418.0 230.4,-437.0" fill="#2E8B57" stroke="#333333" stroke-width="2.00"/>
<text x="230.4" y="-401.0" font-family="Arial" font-size="12" text-anchor="middle" fill="#111">7,-7</text>
<text x="230.4" y="-383.0" font-family="Arial" font-size="11" text-anchor="middle" fill="#111">forest</text>
<polygon points="-230.4,-361.0 -230.4,-323.0 -263.3,-304.0 -296.2,-323.0 -296.2,-361.0 -263.3,-380.0" fill="#9ACD32" stroke="#333333" stroke-width="2.00"/>
<text x="-263.3" y="-344.0" font-family="Arial" font-size="12" text-anchor="middle" fill="#111">-1,-6</text>
<text x="-263.3" y="-326.0" font-family="Arial" font-size="11" text-anchor="middle" fill="#111">grassland</text>
<polygon points="-164.5,-361.0 -164.5,-323.0 -197.5,-304.0 -230.4,-323.0 -230.4,-361.0 -197.5,-380.0" fill="#9ACD32" stroke="#333333" stroke-width="2.00"/>
<text x="-197.5" y="-344.0" font-family="Arial" font-size="12" text-anchor="middle" fill="#111">0,-6</text>
<text x="-197.5" y="-326.0" font-family="Arial" font-size="11" text-anchor="middle" fill="#111">grassland</text>
<polygon points="-98.7,-361.0 -98.7,-323.0 -131.6,-304.0 -164.5,-323.0 -164.5,-361.0 -131.6,-380.0" fill="#C2B280" stroke="#333333" stroke-width="2.00"/>
<text x="-131.6" y="-344.0" font-family="Arial" font-size="12" text-anchor="middle" fill="#111">1,-6</text>
<text x="-131.6" y="-326.0" font-family="Arial" font-size="11" text-anchor="middle" fill="#111">hills</text>
<polygon points="-32.9,-361.0 -32.9,-323.0 -65.8,-304.0 -98.7,-323.0 -98.7,-361.0 -65.8,-380.0" fill="#9ACD32" stroke="#333333" stroke-width="2.00"/>
<text x="-65.8" y="-344.0" font-family="Arial" font-size="12" text-anchor="middle" fill="#111">2,-6</text>
<text x="-65.8" y="-326.0" font-family="Arial" font-size="11" text-anchor="middle" fill="#111">grassland</text>
<polygon points="98.7,-361.0 98.7,-323.0 65.8,-304.0 32.9,-323.0 32.9,-361.0 65.8,-380.0" fill="#5F9EA0" stroke="#333333" stroke-width="2.00"/>
<text x="65.8" y="-344.0" font-family="Arial" font-size="12" text-anchor="middle" fill="#111">4,-6</text>
<text x="65.8" y="-326.0" font-family="Arial" font-size="11" text-anchor="middle" fill="#111">marsh</text>
<polygon points="164.5,-361.0 164.5,-323.0 131.6,-304.0 98.7,-323.0 98.7,-361.0 131.6,-380.0" fill="#9ACD32" stroke="#333333" stroke-width="2.00"/>
<text x="131.6" y="-344.0" font-family="Arial" font-size="12" text-anchor="middle" fill="#111">5,-6</text>
<text x="131.6" y="-326.0" font-family="Arial" font-size="11" text-anchor="middle" fill="#111">grassland</text>
<polygon points="230.4,-361.0 230.4,-323.0 197.5,-304.0 164.5,-323.0 164.5,-361.0 197.5,-380.0" fill="#2E8B57" stroke="#333333" stroke-width="2.00"/>
<text x="197.5" y="-344.0" font-family="Arial" font-size="12" text-anchor="middle" fill="#111">6,-6</text>
<text x="197.5" y="-326.0" font-family="Arial" font-size="11" text-anchor="middle" fill="#111">forest</text>
<polygon points="296.2,-361.0 296.2,-323.0 263.3,-304.0 230.4,-323.0 230.4,-361.0 263.3,-380.0" fill="#2E8B57" stroke="#333333" stroke-width="2.00"/>
<text x="263.3" y="-344.0" font-family="Arial" font-size="12" text-anchor="middle" fill="#111">7,-6</text>
<text x="263.3" y="-326.0" font-family="Arial" font-size="11" text-anchor="middle" fill="#111">forest</text>
<polygon points="-263.3,-304.0 -263.3,-266.0 -296.2,-247.0 -329.1,-266.0 -329.1,-304.0 -296.2,-323.0" fill="#9ACD32" stroke="#333333" stroke-width="2.00"/>
<text x="-296.2" y="-287.0" font-family="Arial" font-size="12" text-anchor="middle" fill="#111">-2,-5</text>
<text x="-296.2" y="-269.0" font-family="Arial" font-size="11" text-anchor="middle" fill="#111">grassland</text>
<polygon points="-197.5,-304.0 -197.5,-266.0 -230.4,-247.0 -263.3,-266.0 -263.3,-304.0 -230.4,-323.0" fill="#9ACD32" stroke="#333333" stroke-width="2.00"/>
<text x="-230.4" y="-287.0" font-family="Arial" font-size="12" text-anchor="middle" fill="#111">-1,-5</text>
<text x="-230.4" y="-269.0" font-family="Arial" font-size="11" text-anchor="middle" fill="#111">grassland</text>
<polygon points="-131.6,-304.0 -131.6,-266.0 -164.5,-247.0 -197.5,-266.0 -197.5,-304.0 -164.5,-323.0" fill="#9ACD32" stroke="#333333" stroke-width="2.00"/>
<text x="-164.5" y="-287.0" font-family="Arial" font-size="12" text-anchor="middle" fill="#111">0,-5</text>
<text x="-164.5" y="-269.0" font-family="Arial" font-size="11" text-anchor="middle" fill="#111">grassland</text>
<polygon points="-65.8,-304.0 -65.8,-266.0 -98.7,-247.0 -131.6,-266.0 -131.6,-304.0 -98.7,-323.0" fill="#2E8B57" stroke="#333333" stroke-width="2.00"/>
<text x="-98.7" y="-287.0" font-family="Arial" font-size="12" text-anchor="middle" fill="#111">1,-5</text>
<text x="-98.7" y="-269.0" font-family="Arial" font-size="11" text-anchor="middle" fill="#111">forest</text>
<polygon points="0.0,-304.0 0.0,-266.0 -32.9,-247.0 -65.8,-266.0 -65.8,-304.0 -32.9,-323.0" fill="#2E8B57" stroke="#333333" stroke-width="2.00"/>
<text x="-32.9" y="-287.0" font-family="Arial" font-size="12" text-anchor="middle" fill="#111">2,-5</text>
<text x="-32.9" y="-269.0" font-family="Arial" font-size="11" text-anchor="middle" fill="#111">forest</text>
<polygon points="65.8,-304.0 65.8,-266.0 32.9,-247.0 -0.0,-266.0 0.0,-304.0 32.9,-323.0" fill="#C2B280" stroke="#333333" stroke-width="2.00"/>
<text x="32.9" y="-287.0" font-family="Arial" font-size="12" text-anchor="middle" fill="#111">3,-5</text>
<text x="32.9" y="-269.0" font-family="Arial" font-size="11" text-anchor="middle" fill="#111">hills</text>
<polygon points="131.6,-304.0 131.6,-266.0 98.7,-247.0 65.8,-266.0 65.8,-304.0 98.7,-323.0" fill="#2E8B57" stroke="#333333" stroke-width="2.00"/>
<text x="98.7" y="-287.0" font-family="Arial" font-size="12" text-anchor="middle" fill="#111">4,-5</text>
<text x="98.7" y="-269.0" font-family="Arial" font-size="11" text-anchor="middle" fill="#111">forest</text>
<polygon points="197.5,-304.0 197.5,-266.0 164.5,-247.0 131.6,-266.0 131.6,-304.0 164.5,-323.0" fill="#2E8B57" stroke="#333333" stroke-width="2.00"/>
<text x="164.5" y="-287.0" font-family="Arial" font-size="12" text-anchor="middle" fill="#111">5,-5</text>
<text x="164.5" y="-269.0" font-family="Arial" font-size="11" text-anchor="middle" fill="#111">forest</text>
<polygon points="263.3,-304.0 263.3,-266.0 230.4,-247.0 197.5,-266.0 197.5,-304.0 230.4,-323.0" fill="#A9A9A9" stroke="#333333" stroke-width="2.00"/>
<text x="230.4" y="-287.0" font-family="Arial" font-size="12" text-anchor="middle" fill="#111">6,-5</text>
<text x="230.4" y="-269.0" font-family="Arial" font-size="11" text-anchor="middle" fill="#111">mountains</text>
<polygon points="329.1,-304.0 329.1,-266.0 296.2,-247.0 263.3,-266.0 263.3,-304.0 296.2,-323.0" fill="#5F9EA0" stroke="#333333" stroke-width="2.00"/>
<text x="296.2" y="-287.0" font-family="Arial" font-size="12" text-anchor="middle" fill="#111">7,-5</text>
<text x="296.2" y="-269.0" font-family="Arial" font-size="11" text-anchor="middle" fill="#111">marsh</text>
<polygon points="-230.4,-247.0 -230.4,-209.0 -263.3,-190.0 -296.2,-209.0 -296.2,-247.0 -263.3,-266.0" fill="#A9A9A9" stroke="#333333" stroke-width="2.00"/>
<text x="-263.3" y="-230.0" font-family="Arial" font-size="12" text-anchor="middle" fill="#111">-2,-4</text>
<text x="-263.3" y="-212.0" font-family="Arial" font-size="11" text-anchor="middle" fill="#111">mountains</text>
<polygon points="-164.5,-247.0 -164.5,-209.0 -197.5,-190.0 -230.4,-209.0 -230.4,-247.0 -197.5,-266.0" fill="#5F9EA0" stroke="#333333" stroke-width="2.00"/>
<text x="-197.5" y="-230.0" font-family="Arial" font-size="12" text-anchor="middle" fill="#111">-1,-4</text>
<text x="-197.5" y="-212.0" font-family="Arial" font-size="11" text-anchor="middle" fill="#111">marsh</text>
<polygon points="-98.7,-247.0 -98.7,-209.0 -131.6,-190.0 -164.5,-209.0 -164.5,-247.0 -131.6,-266.0" fill="#C2B280" stroke="#333333" stroke-width="2.00"/>
<text x="-131.6" y="-230.0" font-family="Arial" font-size="12" text-anchor="middle" fill="#111">0,-4</text>
<text x="-131.6" y="-212.0" font-family="Arial" font-size="11" text-anchor="middle" fill="#111">hills</text>
<polygon points="-32.9,-247.0 -32.9,-209.0 -65.8,-190.0 -98.7,-209.0 -98.7,-247.0 -65.8,-266.0" fill="#2E8B57" stroke="#333333" stroke-width="2.00"/>
<text x="-65.8" y="-230.0" font-family="Arial" font-size="12" text-anchor="middle" fill="#111">1,-4</text>
<text x="-65.8" y="-212.0" font-family="Arial" font-size="11" text-anchor="middle" fill="#111">forest</text>
<polygon points="98.7,-247.0 98.7,-209.0 65.8,-190.0 32.9,-209.0 32.9,-247.0 65.8,-266.0" fill="#2E8B57" stroke="#333333" stroke-width="2.00"/>
<text x="65.8" y="-230.0" font-family="Arial" font-size="12" text-anchor="middle" fill="#111">3,-4</text>
<text x="65.8" y="-212.0" font-family="Arial" font-size="11" text-anchor="middle" fill="#111">forest</text>
<polygon points="164.5,-247.0 164.5,-209.0 131.6,-190.0 98.7,-209.0 98.7,-247.0 131.6,-266.0" fill="#2E8B57" stroke="#333333" stroke-width="2.00"/>
<text x="131.6" y="-230.0" font-family="Arial" font-size="12" text-anchor="middle" fill="#111">4,-4</text>
<text x="131.6" y="-212.0" font-family="Arial" font-size="11" text-anchor="middle" fill="#111">forest</text>
<polygon points="230.4,-247.0 230.4,-209.0 197.5,-190.0 164.5,-209.0 164.5,-247.0 197.5,-266.0" fill="#2E8B57" stroke="#333333" stroke-width="2.00"/>
<text x="197.5" y="-230.0" font-family="Arial" font-size="12" text-anchor="middle" fill="#111">5,-4</text>
<text x="197.5" y="-212.0" font-family="Arial" font-size="11" text-anchor="middle" fill="#111">forest</text>
<polygon points="296.2,-247.0 296.2,-209.0 263.3,-190.0 230.4,-209.0 230.4,-247.0 263.3,-266.0" fill="#5F9EA0" stroke="#333333" stroke-width="2.00"/>
<text x="263.3" y="-230.0" font-family="Arial" font-size="12" text-anchor="middle" fill="#111">6,-4</text>
<text x="263.3" y="-212.0" font-family="Arial" font-size="11" text-anchor="middle" fill="#111">marsh</text>
<polygon points="-197.5,-190.0 -197.5,-152.0 -230.4,-133.0 -263.3,-152.0 -263.3,-190.0 -230.4,-209.0" fill="#5F9EA0" stroke="#333333" stroke-width="2.00"/>
<text x="-230.4" y="-173.0" font-family="Arial" font-size="12" text-anchor="middle" fill="#111">-2,-3</text>
<text x="-230.4" y="-155.0" font-family="Arial" font-size="11" text-anchor="middle" fill="#111">marsh</text>
<polygon points="-131.6,-190.0 -131.6,-152.0 -164.5,-133.0 -197.5,-152.0 -197.5,-190.0 -164.5,-209.0" fill="#C2B280" stroke="#333333" stroke-width="2.00"/>
<text x="-164.5" y="-173.0" font-family="Arial" font-size="12" text-anchor="middle" fill="#111">-1,-3</text>
<text x="-164.5" y="-155.0" font-family="Arial" font-size="11" text-anchor="middle" fill="#111">hills</text>
<polygon points="-65.8,-190.0 -65.8,-152.0 -98.7,-133.0 -131.6,-152.0 -131.6,-190.0 -98.7,-209.0" fill="#C2B280" stroke="#333333" stroke-width="2.00"/>
<text x="-98.7" y="-173.0" font-family="Arial" font-size="12" text-anchor="middle" fill="#111">0,-3</text>
<text x="-98.7" y="-155.0" font-family="Arial" font-size="11" text-anchor="middle" fill="#111">hills</text>
<polygon points="131.6,-190.0 131.6,-152.0 98.7,-133.0 65.8,-152.0 65.8,-190.0 98.7,-209.0" fill="#9ACD32" stroke="#333333" stroke-width="2.00"/>
<text x="98.7" y="-173.0" font-family="Arial" font-size="12" text-anchor="middle" fill="#111">3,-3</text>
<text x="98.7" y="-155.0" font-family="Arial" font-size="11" text-anchor="middle" fill="#111">grassland</text>
<polygon points="197.5,-190.0 197.5,-152.0 164.5,-133.0 131.6,-152.0 131.6,-190.0 164.5,-209.0" fill="#2E8B57" stroke="#333333" stroke-width="2.00"/>
<text x="164.5" y="-173.0" font-family="Arial" font-size="12" text-anchor="middle" fill="#111">4,-3</text>
<text x="164.5" y="-155.0" font-family="Arial" font-size="11" text-anchor="middle" fill="#111">forest</text>
<polygon points="263.3,-190.0 263.3,-152.0 230.4,-133.0 197.5,-152.0 197.5,-190.0 230.4,-209.0" fill="#2E8B57" stroke="#333333" stroke-width="2.00"/>
<text x="230.4" y="-173.0" font-family="Arial" font-size="12" text-anchor="middle" fill="#111">5,-3</text>
<text x="230.4" y="-155.0" font-family="Arial" font-size="11" text-anchor="middle" fill="#111">forest</text>
<polygon points="-362.0,-133.0 -362.0,-95.0 -394.9,-76.0 -427.8,-95.0 -427.8,-133.0 -394.9,-152.0" fill="#C2B280" stroke="#333333" stroke-width="2.00"/>
<text x="-394.9" y="-116.0" font-family="Arial" font-size="12" text-anchor="middle" fill="#111">-5,-2</text>
<text x="-394.9" y="-98.0" font-family="Arial" font-size="11" text-anchor="middle" fill="#111">hills</text>
<polygon points="-296.2,-133.0 -296.2,-95.0 -329.1,-76.0 -362.0,-95.0 -362.0,-133.0 -329.1,-152.0" fill="#2E8B57" stroke="#333333" stroke-width="2.00"/>
<text x="-329.1" y="-116.0" font-family="Arial" font-size="12" text-anchor="middle" fill="#111">-4,-2</text>
<text x="-329.1" y="-98.0" font-family="Arial" font-size="11" text-anchor="middle" fill="#111">forest</text>
<polygon points="-230.4,-133.0 -230.4,-95.0 -263.3,-76.0 -296.2,-95.0 -296.2,-133.0 -263.3,-152.0" fill="#9ACD32" stroke="#333333" stroke-width="2.00"/>
<text x="-263.3" y="-116.0" font-family="Arial" font-size="12" text-anchor="middle" fill="#111">-3,-2</text>
<text x="-263.3" y="-98.0" font-family="Arial" font-size="11" text-anchor="middle" fill="#111">grassland</text>
<polygon points="-32.9,-133.0 -32.9,-95.0 -65.8,-76.0 -98.7,-95.0 -98.7,-133.0 -65.8,-152.0" fill="#9ACD32" stroke="#333333" stroke-width="2.00"/>
<text x="-65.8" y="-116.0" font-family="Arial" font-size="12" text-anchor="middle" fill="#111">0,-2</text>
<text x="-65.8" y="-98.0" font-family="Arial" font-size="11" text-anchor="middle" fill="#111">grassland</text>
<polygon points="32.9,-133.0 32.9,-95.0 0.0,-76.0 -32.9,-95.0 -32.9,-133.0 -0.0,-152.0" fill="#9ACD32" stroke="#333333" stroke-width="2.00"/>
<text x="0.0" y="-116.0" font-family="Arial" font-size="12" text-anchor="middle" fill="#111">1,-2</text>
<text x="0.0" y="-98.0" font-family="Arial" font-size="11" text-anchor="middle" fill="#111">grassland</text>
<polygon points="98.7,-133.0 98.7,-95.0 65.8,-76.0 32.9,-95.0 32.9,-133.0 65.8,-152.0" fill="#9ACD32" stroke="#333333" stroke-width="2.00"/>
<text x="65.8" y="-116.0" font-family="Arial" font-size="12" text-anchor="middle" fill="#111">2,-2</text>
<text x="65.8" y="-98.0" font-family="Arial" font-size="11" text-anchor="middle" fill="#111">grassland</text>
<polygon points="296.2,-133.0 296.2,-95.0 263.3,-76.0 230.4,-95.0 230.4,-133.0 263.3,-152.0" fill="#C2B280" stroke="#333333" stroke-width="2.00"/>
<text x="263.3" y="-116.0" font-family="Arial" font-size="12" text-anchor="middle" fill="#111">5,-2</text>
<text x="263.3" y="-98.0" font-family="Arial" font-size="11" text-anchor="middle" fill="#111">hills</text>
<polygon points="362.0,-133.0 362.0,-95.0 329.1,-76.0 296.2,-95.0 296.2,-133.0 329.1,-152.0" fill="#2E8B57" stroke="#333333" stroke-width="2.00"/>
<text x="329.1" y="-116.0" font-family="Arial" font-size="12" text-anchor="middle" fill="#111">6,-2</text>
<text x="329.1" y="-98.0" font-family="Arial" font-size="11" text-anchor="middle" fill="#111">forest</text>
<polygon points="427.8,-133.0 427.8,-95.0 394.9,-76.0 362.0,-95.0 362.0,-133.0 394.9,-152.0" fill="#5F9EA0" stroke="#333333" stroke-width="2.00"/>
<text x="394.9" y="-116.0" font-family="Arial" font-size="12" text-anchor="middle" fill="#111">7,-2</text>
<text x="394.9" y="-98.0" font-family="Arial" font-size="11" text-anchor="middle" fill="#111">marsh</text>
<polygon points="-394.9,-76.0 -394.9,-38.0 -427.8,-19.0 -460.7,-38.0 -460.7,-76.0 -427.8,-95.0" fill="#2E8B57" stroke="#333333" stroke-width="2.00"/>
<text x="-427.8" y="-59.0" font-family="Arial" font-size="12" text-anchor="middle" fill="#111">-6,-1</text>
<text x="-427.8" y="-41.0" font-family="Arial" font-size="11" text-anchor="middle" fill="#111">forest</text>
<polygon points="-329.1,-76.0 -329.1,-38.0 -362.0,-19.0 -394.9,-38.0 -394.9,-76.0 -362.0,-95.0" fill="#2E8B57" stroke="#333333" stroke-width="2.00"/>
<text x="-362.0" y="-59.0" font-family="Arial" font-size="12" text-anchor="middle" fill="#111">-5,-1</text>
<text x="-362.0" y="-41.0" font-family="Arial" font-size="11" text-anchor="middle" fill="#111">forest</text>
<polygon points="-263.3,-76.0 -263.3,-38.0 -296.2,-19.0 -329.1,-38.0 -329.1,-76.0 -296.2,-95.0" fill="#9ACD32" stroke="#333333" stroke-width="2.00"/>
<text x="-296.2" y="-59.0" font-family="Arial" font-size="12" text-anchor="middle" fill="#111">-4,-1</text>
<text x="-296.2" y="-41.0" font-family="Arial" font-size="11" text-anchor="middle" fill="#111">grassland</text>
<polygon points="-197.5,-76.0 -197.5,-38.0 -230.4,-19.0 -263.3,-38.0 -263.3,-76.0 -230.4,-95.0" fill="#9ACD32" stroke="#333333" stroke-width="2.00"/>
<text x="-230.4" y="-59.0" font-family="Arial" font-size="12" text-anchor="middle" fill="#111">-3,-1</text>
<text x="-230.4" y="-41.0" font-family="Arial" font-size="11" text-anchor="middle" fill="#111">grassland</text>
<polygon points="-65.8,-76.0 -65.8,-38.0 -98.7,-19.0 -131.6,-38.0 -131.6,-76.0 -98.7,-95.0" fill="#5F9EA0" stroke="#333333" stroke-width="2.00"/>
<text x="-98.7" y="-59.0" font-family="Arial" font-size="12" text-anchor="middle" fill="#111">-1,-1</text>
<text x="-98.7" y="-41.0" font-family="Arial" font-size="11" text-anchor="middle" fill="#111">marsh</text>
<polygon points="0.0,-76.0 0.0,-38.0 -32.9,-19.0 -65.8,-38.0 -65.8,-76.0 -32.9,-95.0" fill="#9ACD32" stroke="#333333" stroke-width="2.00"/>
<text x="-32.9" y="-59.0" font-family="Arial" font-size="12" text-anchor="middle" fill="#111">0,-1</text>
<text x="-32.9" y="-41.0" font-family="Arial" font-size="11" text-anchor="middle" fill="#111">grassland</text>
<polygon points="65.8,-76.0 65.8,-38.0 32.9,-19.0 -0.0,-38.0 0.0,-76.0 32.9,-95.0" fill="#9ACD32" stroke="#333333" stroke-width="2.00"/>
<text x="32.9" y="-59.0" font-family="Arial" font-size="12" text-anchor="middle" fill="#111">1,-1</text>
<text x="32.9" y="-41.0" font-family="Arial" font-size="11" text-anchor="middle" fill="#111">grassland</text>
<polygon points="131.6,-76.0 131.6,-38.0 98.7,-19.0 65.8,-38.0 65.8,-76.0 98.7,-95.0" fill="#9ACD32" stroke="#333333" stroke-width="2.00"/>
<text x="98.7" y="-59.0" font-family="Arial" font-size="12" text-anchor="middle" fill="#111">2,-1</text>
<text x="98.7" y="-41.0" font-family="Arial" font-size="11" text-anchor="middle" fill="#111">grassland</text>
<polygon points="263.3,-76.0 263.3,-38.0 230.4,-19.0 197.5,-38.0 197.5,-76.0 230.4,-95.0" fill="#C2B280" stroke="#333333" stroke-width="2.00"/>
<text x="230.4" y="-59.0" font-family="Arial" font-size="12" text-anchor="middle" fill="#111">4,-1</text>
<text x="230.4" y="-41.0" font-family="Arial" font-size="11" text-anchor="middle" fill="#111">hills</text>
<polygon points="329.1,-76.0 329.1,-38.0 296.2,-19.0 263.3,-38.0 263.3,-76.0 296.2,-95.0" fill="#C2B280" stroke="#333333" stroke-width="2.00"/>
<text x="296.2" y="-59.0" font-family="Arial" font-size="12" text-anchor="middle" fill="#111">5,-1</text>
<text x="296.2" y="-41.0" font-family="Arial" font-size="11" text-anchor="middle" fill="#111">hills</text>
<polygon points="394.9,-76.0 394.9,-38.0 362.0,-19.0 329.1,-38.0 329.1,-76.0 362.0,-95.0" fill="#5F9EA0" stroke="#333333" stroke-width="2.00"/>
<text x="362.0" y="-59.0" font-family="Arial" font-size="12" text-anchor="middle" fill="#111">6,-1</text>
<text x="362.0" y="-41.0" font-family="Arial" font-size="11" text-anchor="middle" fill="#111">marsh</text>
<polygon points="460.7,-76.0 460.7,-38.0 427.8,-19.0 394.9,-38.0 394.9,-76.0 427.8,-95.0" fill="#9ACD32" stroke="#333333" stroke-width="2.00"/>
<text x="427.8" y="-59.0" font-family="Arial" font-size="12" text-anchor="middle" fill="#111">7,-1</text>
<text x="427.8" y="-41.0" font-family="Arial" font-size="11" text-anchor="middle" fill="#111">grassland</text>
<polygon points="-427.8,-19.0 -427.8,19.0 -460.7,38.0 -493.6,19.0 -493.6,-19.0 -460.7,-38.0" fill="#5F9EA0" stroke="#333333" stroke-width="2.00"/>
<text x="-460.7" y="-2.0" font-family="Arial" font-size="12" text-anchor="middle" fill="#111">-7,0</text>
<text x="-460.7" y="16.0" font-family="Arial" font-size="11" text-anchor="middle" fill="#111">marsh</text>
<polygon points="-362.0,-19.0 -362.0,19.0 -394.9,38.0 -427.8,19.0 -427.8,-19.0 -394.9,-38.0" fill="#9ACD32" stroke="#333333" stroke-width="2.00"/>
<text x="-394.9" y="-2.0" font-family="Arial" font-size="12" text-anchor="middle" fill="#111">-6,0</text>
<text x="-394.9" y="16.0" font-family="Arial" font-size="11" text-anchor="middle" fill="#111">grassland</text>
<polygon points="-296.2,-19.0 -296.2,19.0 -329.1,38.0 -362.0,19.0 -362.0,-19.0 -329.1,-38.0" fill="#9ACD32" stroke="#333333" stroke-width="2.00"/>
<text x="-329.1" y="-2.0" font-family="Arial" font-size="12" text-anchor="middle" fill="#111">-5,0</text>
<text x="-329.1" y="16.0" font-family="Arial" font-size="11" text-anchor="middle" fill="#111">grassland</text>
<polygon points="-230.4,-19.0 -230.4,19.0 -263.3,38.0 -296.2,19.0 -296.2,-19.0 -263.3,-38.0" fill="#9ACD32" stroke="#333333" stroke-width="2.00"/>
<text x="-263.3" y="-2.0" font-family="Arial" font-size="12" text-anchor="middle" fill="#111">-4,0</text>
<text x="-263.3" y="16.0" font-family="Arial" font-size="11" text-anchor="middle" fill="#111">grassland</text>
<polygon points="-164.5,-19.0 -164.5,19.0 -197.5,38.0 -230.4,19.0 -230.4,-19.0 -197.5,-38.0" fill="#2E8B57" stroke="#333333" stroke-width="2.00"/>
<text x="-197.5" y="-2.0" font-family="Arial" font-size="12" text-anchor="middle" fill="#111">-3,0</text>
<text x="-197.5" y="16.0" font-family="Arial" font-size="11" text-anchor="middle" fill="#111">forest</text>
<polygon points="-98.7,-19.0 -98.7,19.0 -131.6,38.0 -164.5,19.0 -164.5,-19.0 -131.6,-38.0" fill="#9ACD32" stroke="#333333" stroke-width="2.00"/>
<text x="-131.6" y="-2.0" font-family="Arial" font-size="12" text-anchor="middle" fill="#111">-2,0</text>
<text x="-131.6" y="16.0" font-family="Arial" font-size="11" text-anchor="middle" fill="#111">grassland</text>
<polygon points="-32.9,-19.0 -32.9,19.0 -65.8,38.0 -98.7,19.0 -98.7,-19.0 -65.8,-38.0" fill="#9ACD32" stroke="#333333" stroke-width="2.00"/>
<text x="-65.8" y="-2.0" font-family="Arial" font-size="12" text-anchor="middle" fill="#111">-1,0</text>
<text x="-65.8" y="16.0" font-family="Arial" font-size="11" text-anchor="middle" fill="#111">grassland</text>
<polygon points="32.9,-19.0 32.9,19.0 0.0,38.0 -32.9,19.0 -32.9,-19.0 -0.0,-38.0" fill="#9ACD32" stroke="#333333" stroke-width="2.00"/>
<text x="0.0" y="-2.0" font-family="Arial" font-size="12" text-anchor="middle" fill="#111">0,0</text>
<text x="0.0" y="16.0" font-family="Arial" font-size="11" text-anchor="middle" fill="#111">grassland</text>
<polygon points="98.7,-19.0 98.7,19.0 65.8,38.0 32.9,19.0 32.9,-19.0 65.8,-38.0" fill="#2E8B57" stroke="#333333" stroke-width="2.00"/>
<text x="65.8" y="-2.0" font-family="Arial" font-size="12" text-anchor="middle" fill="#111">1,0</text>
<text x="65.8" y="16.0" font-family="Arial" font-size="11" text-anchor="middle" fill="#111">forest</text>
<polygon points="164.5,-19.0 164.5,19.0 131.6,38.0 98.7,19.0 98.7,-19.0 131.6,-38.0" fill="#9ACD32" stroke="#333333" stroke-width="2.00"/>
<text x="131.6" y="-2.0" font-family="Arial" font-size="12" text-anchor="middle" fill="#111">2,0</text>
<text x="131.6" y="16.0" font-family="Arial" font-size="11" text-anchor="middle" fill="#111">grassland</text>
<polygon points="230.4,-19.0 230.4,19.0 197.5,38.0 164.5,19.0 164.5,-19.0 197.5,-38.0" fill="#2E8B57" stroke="#333333" stroke-width="2.00"/>
<text x="197.5" y="-2.0" font-family="Arial" font-size="12" text-anchor="middle" fill="#111">3,0</text>
<text x="197.5" y="16.0" font-family="Arial" font-size="11" text-anchor="middle" fill="#111">forest</text>
<polygon points="296.2,-19.0 296.2,19.0 263.3,38.0 230.4,19.0 230.4,-19.0 263.3,-38.0" fill="#C2B280" stroke="#333333" stroke-width="2.00"/>
<text x="263.3" y="-2.0" font-family="Arial" font-size="12" text-anchor="middle" fill="#111">4,0</text>
<text x="263.3" y="16.0" font-family="Arial" font-size="11" text-anchor="middle" fill="#111">hills</text>
<polygon points="362.0,-19.0 362.0,19.0 329.1,38.0 296.2,19.0 296.2,-19.0 329.1,-38.0" fill="#C2B280" stroke="#333333" stroke-width="2.00"/>
<text x="329.1" y="-2.0" font-family="Arial" font-size="12" text-anchor="middle" fill="#111">5,0</text>
<text x="329.1" y="16.0" font-family="Arial" font-size="11" text-anchor="middle" fill="#111">hills</text>
<polygon points="427.8,-19.0 427.8,19.0 394.9,38.0 362.0,19.0 362.0,-19.0 394.9,-38.0" fill="#9ACD32" stroke="#333333" stroke-width="2.00"/>
<text x="394.9" y="-2.0" font-family="Arial" font-size="12" text-anchor="middle" fill="#111">6,0</text>
<text x="394.9" y="16.0" font-family="Arial" font-size="11" text-anchor="middle" fill="#111">grassland</text>
<polygon points="493.6,-19.0 493.6,19.0 460.7,38.0 427.8,19.0 427.8,-19.0 460.7,-38.0" fill="#9ACD32" stroke="#333333" stroke-width="2.00"/>
<text x="460.7" y="-2.0" font-family="Arial" font-size="12" text-anchor="middle" fill="#111">7,0</text>
<text x="460.7" y="16.0" font-family="Arial" font-size="11" text-anchor="middle" fill="#111">grassland</text>
<polygon points="-394.9,38.0 -394.9,76.0 -427.8,95.0 -460.7,76.0 -460.7,38.0 -427.8,19.0" fill="#9ACD32" stroke="#333333" stroke-width="2.00"/>
<text x="-427.8" y="55.0" font-family="Arial" font-size="12" text-anchor="middle" fill="#111">-7,1</text>
<text x="-427.8" y="73.0" font-family="Arial" font-size="11" text-anchor="middle" fill="#111">grassland</text>
<polygon points="-329.1,38.0 -329.1,76.0 -362.0,95.0 -394.9,76.0 -394.9,38.0 -362.0,19.0" fill="#5F9EA0" stroke="#333333" stroke-width="2.00"/>
<text x="-362.0" y="55.0" font-family="Arial" font-size="12" text-anchor="middle" fill="#111">-6,1</text>
<text x="-362.0" y="73.0" font-family="Arial" font-size="11" text-anchor="middle" fill="#111">marsh</text>
<polygon points="-263.3,38.0 -263.3,76.0 -296.2,95.0 -329.1,76.0 -329.1,38.0 -296.2,19.0" fill="#9ACD32" stroke="#333333" stroke-width="2.00"/>
<text x="-296.2" y="55.0" font-family="Arial" font-size="12" text-anchor="middle" fill="#111">-5,1</text>
<text x="-296.2" y="73.0" font-family="Arial" font-size="11" text-anchor="middle" fill="#111">grassland</text>
<polygon points="-197.5,38.0 -197.5,76.0 -230.4,95.0 -263.3,76.0 -263.3,38.0 -230.4,19.0" fill="#5F9EA0" stroke="#333333" stroke-width="2.00"/>
<text x="-230.4" y="55.0" font-family="Arial" font-size="12" text-anchor="middle" fill="#111">-4,1</text>
<text x="-230.4" y="73.0" font-family="Arial" font-size="11" text-anchor="middle" fill="#111">marsh</text>
<polygon points="-65.8,38.0 -65.8,76.0 -98.7,95.0 -131.6,76.0 -131.6,38.0 -98.7,19.0" fill="#9ACD32" stroke="#333333" stroke-width="2.00"/>
<text x="-98.7" y="55.0" font-family="Arial" font-size="12" text-anchor="middle" fill="#111">-2,1</text>
<text x="-98.7" y="73.0" font-family="Arial" font-size="11" text-anchor="middle" fill="#111">grassland</text>
<polygon points="0.0,38.0 0.0,76.0 -32.9,95.0 -65.8,76.0 -65.8,38.0 -32.9,19.0" fill="#9ACD32" stroke="#333333" stroke-width="2.00"/>
<text x="-32.9" y="55.0" font-family="Arial" font-size="12" text-anchor="middle" fill="#111">-1,1</text>
<text x="-32.9" y="73.0" font-family="Arial" font-size="11" text-anchor="middle" fill="#111">grassland</text>
<polygon points="65.8,38.0 65.8,76.0 32.9,95.0 -0.0,76.0 0.0,38.0 32.9,19.0" fill="#9ACD32" stroke="#333333" stroke-width="2.00"/>
<text x="32.9" y="55.0" font-family="Arial" font-size="12" text-anchor="middle" fill="#111">0,1</text>
<text x="32.9" y="73.0" font-family="Arial" font-size="11" text-anchor="middle" fill="#111">grassland</text>
<polygon points="131.6,38.0 131.6,76.0 98.7,95.0 65.8,76.0 65.8,38.0 98.7,19.0" fill="#9ACD32" stroke="#333333" stroke-width="2.00"/>
<text x="98.7" y="55.0" font-family="Arial" font-size="12" text-anchor="middle" fill="#111">1,1</text>
<text x="98.7" y="73.0" font-family="Arial" font-size="11" text-anchor="middle" fill="#111">grassland</text>
<polygon points="263.3,38.0 263.3,76.0 230.4,95.0 197.5,76.0 197.5,38.0 230.4,19.0" fill="#A9A9A9" stroke="#333333" stroke-width="2.00"/>
<text x="230.4" y="55.0" font-family="Arial" font-size="12" text-anchor="middle" fill="#111">3,1</text>
<text x="230.4" y="73.0" font-family="Arial" font-size="11" text-anchor="middle" fill="#111">mountains</text>
<polygon points="329.1,38.0 329.1,76.0 296.2,95.0 263.3,76.0 263.3,38.0 296.2,19.0" fill="#5F9EA0" stroke="#333333" stroke-width="2.00"/>
<text x="296.2" y="55.0" font-family="Arial" font-size="12" text-anchor="middle" fill="#111">4,1</text>
<text x="296.2" y="73.0" font-family="Arial" font-size="11" text-anchor="middle" fill="#111">marsh</text>
<polygon points="394.9,38.0 394.9,76.0 362.0,95.0 329.1,76.0 329.1,38.0 362.0,19.0" fill="#2E8B57" stroke="#333333" stroke-width="2.00"/>
<text x="362.0" y="55.0" font-family="Arial" font-size="12" text-anchor="middle" fill="#111">5,1</text>
<text x="362.0" y="73.0" font-family="Arial" font-size="11" text-anchor="middle" fill="#111">forest</text>
<polygon points="460.7,38.0 460.7,76.0 427.8,95.0 394.9,76.0 394.9,38.0 427.8,19.0" fill="#9ACD32" stroke="#333333" stroke-width="2.00"/>
<text x="427.8" y="55.0" font-family="Arial" font-size="12" text-anchor="middle" fill="#111">6,1</text>
<text x="427.8" y="73.0" font-family="Arial" font-size="11" text-anchor="middle" fill="#111">grassland</text>
<polygon points="-362.0,95.0 -362.0,133.0 -394.9,152.0 -427.8,133.0 -427.8,95.0 -394.9,76.0" fill="#5F9EA0" stroke="#333333" stroke-width="2.00"/>
<text x="-394.9" y="112.0" font-family="Arial" font-size="12" text-anchor="middle" fill="#111">-7,2</text>
<text x="-394.9" y="130.0" font-family="Arial" font-size="11" text-anchor="middle" fill="#111">marsh</text>
<polygon points="-296.2,95.0 -296.2,133.0 -329.1,152.0 -362.0,133.0 -362.0,95.0 -329.1,76.0" fill="#2E8B57" stroke="#333333" stroke-width="2.00"/>
<text x="-329.1" y="112.0" font-family="Arial" font-size="12" text-anchor="middle" fill="#111">-6,2</text>
<text x="-329.1" y="130.0" font-family="Arial" font-size="11" text-anchor="middle" fill="#111">forest</text>
<polygon points="-230.4,95.0 -230.4,133.0 -263.3,152.0 -296.2,133.0 -296.2,95.0 -263.3,76.0" fill="#9ACD32" stroke="#333333" stroke-width="2.00"/>
<text x="-263.3" y="112.0" font-family="Arial" font-size="12" text-anchor="middle" fill="#111">-5,2</text>
<text x="-263.3" y="130.0" font-family="Arial" font-size="11" text-anchor="middle" fill="#111">grassland</text>
<polygon points="-32.9,95.0 -32.9,133.0 -65.8,152.0 -98.7,133.0 -98.7,95.0 -65.8,76.0" fill="#2E8B57" stroke="#333333" stroke-width="2.00"/>
<text x="-65.8" y="112.0" font-family="Arial" font-size="12" text-anchor="middle" fill="#111">-2,2</text>
<text x="-65.8" y="130.0" font-family="Arial" font-size="11" text-anchor="middle" fill="#111">forest</text>
<polygon points="32.9,95.0 32.9,133.0 0.0,152.0 -32.9,133.0 -32.9,95.0 -0.0,76.0" fill="#5F9EA0" stroke="#333333" stroke-width="2.00"/>
<text x="0.0" y="112.0" font-family="Arial" font-size="12" text-anchor="middle" fill="#111">-1,2</text>
<text x="0.0" y="130.0" font-family="Arial" font-size="11" text-anchor="middle" fill="#111">marsh</text>
<polygon points="98.7,95.0 98.7,133.0 65.8,152.0 32.9,133.0 32.9,95.0 65.8,76.0" fill="#5F9EA0" stroke="#333333" stroke-width="2.00"/>
<text x="65.8" y="112.0" font-family="Arial" font-size="12" text-anchor="middle" fill="#111">0,2</text>
<text x="65.8" y="130.0" font-family="Arial" font-size="11" text-anchor="middle" fill="#111">marsh</text>
<polygon points="296.2,95.0 296.2,133.0 263.3,152.0 230.4,133.0 230.4,95.0 263.3,76.0" fill="#5F9EA0" stroke="#333333" stroke-width="2.00"/>
<text x="263.3" y="112.0" font-family="Arial" font-size="12" text-anchor="middle" fill="#111">3,2</text>
<text x="263.3" y="130.0" font-family="Arial" font-size="11" text-anchor="middle" fill="#111">marsh</text>
<polygon points="362.0,95.0 362.0,133.0 329.1,152.0 296.2,133.0 296.2,95.0 329.1,76.0" fill="#C2B280" stroke="#333333" stroke-width="2.00"/>
<text x="329.1" y="112.0" font-family="Arial" font-size="12" text-anchor="middle" fill="#111">4,2</text>
<text x="329.1" y="130.0" font-family="Arial" font-size="11" text-anchor="middle" fill="#111">hills</text>
<polygon points="427.8,95.0 427.8,133.0 394.9,152.0 362.0,133.0 362.0,95.0 394.9,76.0" fill="#2E8B57" stroke="#333333" stroke-width="2.00"/>
<text x="394.9" y="112.0" font-family="Arial" font-size="12" text-anchor="middle" fill="#111">5,2</text>
<text x="394.9" y="130.0" font-family="Arial" font-size="11" text-anchor="middle" fill="#111">forest</text>
<polygon points="-197.5,152.0 -197.5,190.0 -230.4,209.0 -263.3,190.0 -263.3,152.0 -230.4,133.0" fill="#2E8B57" stroke="#333333" stroke-width="2.00"/>
<text x="-230.4" y="169.0" font-family="Arial" font-size="12" text-anchor="middle" fill="#111">-5,3</text>
<text x="-230.4" y="187.0" font-family="Arial" font-size="11" text-anchor="middle" fill="#111">forest</text>
<polygon points="-131.6,152.0 -131.6,190.0 -164.5,209.0 -197.5,190.0 -197.5,152.0 -164.5,133.0" fill="#2E8B57" stroke="#333333" stroke-width="2.00"/>
<text x="-164.5" y="169.0" font-family="Arial" font-size="12" text-anchor="middle" fill="#111">-4,3</text>
<text x="-164.5" y="187.0" font-family="Arial" font-size="11" text-anchor="middle" fill="#111">forest</text>
<polygon points="-65.8,152.0 -65.8,190.0 -98.7,209.0 -131.6,190.0 -131.6,152.0 -98.7,133.0" fill="#A9A9A9" stroke="#333333" stroke-width="2.00"/>
<text x="-98.7" y="169.0" font-family="Arial" font-size="12" text-anchor="middle" fill="#111">-3,3</text>
<text x="-98.7" y="187.0" font-family="Arial" font-size="11" text-anchor="middle" fill="#111">mountains</text>
<polygon points="131.6,152.0 131.6,190.0 98.7,209.0 65.8,190.0 65.8,152.0 98.7,133.0" fill="#5F9EA0" stroke="#333333" stroke-width="2.00"/>
<text x="98.7" y="169.0" font-family="Arial" font-size="12" text-anchor="middle" fill="#111">0,3</text>
<text x="98.7" y="187.0" font-family="Arial" font-size="11" text-anchor="middle" fill="#111">marsh</text>
<polygon points="197.5,152.0 197.5,190.0 164.5,209.0 131.6,190.0 131.6,152.0 164.5,133.0" fill="#2E8B57" stroke="#333333" stroke-width="2.00"/>
<text x="164.5" y="169.0" font-family="Arial" font-size="12" text-anchor="middle" fill="#111">1,3</text>
<text x="164.5" y="187.0" font-family="Arial" font-size="11" text-anchor="middle" fill="#111">forest</text>
<polygon points="263.3,152.0 263.3,190.0 230.4,209.0 197.5,190.0 197.5,152.0 230.4,133.0" fill="#C2B280" stroke="#333333" stroke-width="2.00"/>
<text x="230.4" y="169.0" font-family="Arial" font-size="12" text-anchor="middle" fill="#111">2,3</text>
<text x="230.4" y="187.0" font-family="Arial" font-size="11" text-anchor="middle" fill="#111">hills</text>
<polygon points="-230.4,209.0 -230.4,247.0 -263.3,266.0 -296.2,247.0 -296.2,209.0 -263.3,190.0" fill="#2E8B57" stroke="#333333" stroke-width="2.00"/>
<text x="-263.3" y="226.0" font-family="Arial" font-size="12" text-anchor="middle" fill="#111">-6,4</text>
<text x="-263.3" y="244.0" font-family="Arial" font-size="11" text-anchor="middle" fill="#111">forest</text>
<polygon points="-164.5,209.0 -164.5,247.0 -197.5,266.0 -230.4,247.0 -230.4,209.0 -197.5,190.0" fill="#2E8B57" stroke="#333333" stroke-width="2.00"/>
<text x="-197.5" y="226.0" font-family="Arial" font-size="12" text-anchor="middle" fill="#111">-5,4</text>
<text x="-197.5" y="244.0" font-family="Arial" font-size="11" text-anchor="middle" fill="#111">forest</text>
<polygon points="-98.7,209.0 -98.7,247.0 -131.6,266.0 -164.5,247.0 -164.5,209.0 -131.6,190.0" fill="#A9A9A9" stroke="#333333" stroke-width="2.00"/>
<text x="-131.6" y="226.0" font-family="Arial" font-size="12" text-anchor="middle" fill="#111">-4,4</text>
<text x="-131.6" y="244.0" font-family="Arial" font-size="11" text-anchor="middle" fill="#111">mountains</text>
<polygon points="-32.9,209.0 -32.9,247.0 -65.8,266.0 -98.7,247.0 -98.7,209.0 -65.8,190.0" fill="#A9A9A9" stroke="#333333" stroke-width="2.00"/>
<text x="-65.8" y="226.0" font-family="Arial" font-size="12" text-anchor="middle" fill="#111">-3,4</text>
<text x="-65.8" y="244.0" font-family="Arial" font-size="11" text-anchor="middle" fill="#111">mountains</text>
<polygon points="98.7,209.0 98.7,247.0 65.8,266.0 32.9,247.0 32.9,209.0 65.8,190.0" fill="#2E8B57" stroke="#333333" stroke-width="2.00"/>
<text x="65.8" y="226.0" font-family="Arial" font-size="12" text-anchor="middle" fill="#111">-1,4</text>
<text x="65.8" y="244.0" font-family="Arial" font-size="11" text-anchor="middle" fill="#111">forest</text>
<polygon points="164.5,209.0 164.5,247.0 131.6,266.0 98.7,247.0 98.7,209.0 131.6,190.0" fill="#9ACD32" stroke="#333333" stroke-width="2.00"/>
<text x="131.6" y="226.0" font-family="Arial" font-size="12" text-anchor="middle" fill="#111">0,4</text>
<text x="131.6" y="244.0" font-family="Arial" font-size="11" text-anchor="middle" fill="#111">grassland</text>
<polygon points="230.4,209.0 230.4,247.0 197.5,266.0 164.5,247.0 164.5,209.0 197.5,190.0" fill="#C2B280" stroke="#333333" stroke-width="2.00"/>
<text x="197.5" y="226.0" font-family="Arial" font-size="12" text-anchor="middle" fill="#111">1,4</text>
<text x="197.5" y="244.0" font-family="Arial" font-size="11" text-anchor="middle" fill="#111">hills</text>
<polygon points="296.2,209.0 296.2,247.0 263.3,266.0 230.4,247.0 230.4,209.0 263.3,190.0" fill="#9ACD32" stroke="#333333" stroke-width="2.00"/>
<text x="263.3" y="226.0" font-family="Arial" font-size="12" text-anchor="middle" fill="#111">2,4</text>
<text x="263.3" y="244.0" font-family="Arial" font-size="11" text-anchor="middle" fill="#111">grassland</text>
<polygon points="-263.3,266.0 -263.3,304.0 -296.2,323.0 -329.1,304.0 -329.1,266.0 -296.2,247.0" fill="#2E8B57" stroke="#333333" stroke-width="2.00"/>
<text x="-296.2" y="283.0" font-family="Arial" font-size="12" text-anchor="middle" fill="#111">-7,5</text>
<text x="-296.2" y="301.0" font-family="Arial" font-size="11" text-anchor="middle" fill="#111">forest</text>
<polygon points="-197.5,266.0 -197.5,304.0 -230.4,323.0 -263.3,304.0 -263.3,266.0 -230.4,247.0" fill="#9ACD32" stroke="#333333" stroke-width="2.00"/>
<text x="-230.4" y="283.0" font-family="Arial" font-size="12" text-anchor="middle" fill="#111">-6,5</text>
<text x="-230.4" y="301.0" font-family="Arial" font-size="11" text-anchor="middle" fill="#111">grassland</text>
<polygon points="-131.6,266.0 -131.6,304.0 -164.5,323.0 -197.5,304.0 -197.5,266.0 -164.5,247.0" fill="#9ACD32" stroke="#333333" stroke-width="2.00"/>
<text x="-164.5" y="283.0" font-family="Arial" font-size="12" text-anchor="middle" fill="#111">-5,5</text>
<text x="-164.5" y="301.0" font-family="Arial" font-size="11" text-anchor="middle" fill="#111">grassland</text>
<polygon points="-65.8,266.0 -65.8,304.0 -98.7,323.0 -131.6,304.0 -131.6,266.0 -98.7,247.0" fill="#9ACD32" stroke="#333333" stroke-width="2.00"/>
<text x="-98.7" y="283.0" font-family="Arial" font-size="12" text-anchor="middle" fill="#111">-4,5</text>
<text x="-98.7" y="301.0" font-family="Arial" font-size="11" text-anchor="middle" fill="#111">grassland</text>
<polygon points="0.0,266.0 0.0,304.0 -32.9,323.0 -65.8,304.0 -65.8,266.0 -32.9,247.0" fill="#9ACD32" stroke="#333333" stroke-width="2.00"/>
<text x="-32.9" y="283.0" font-family="Arial" font-size="12" text-anchor="middle" fill="#111">-3,5</text>
<text x="-32.9" y="301.0" font-family="Arial" font-size="11" text-anchor="middle" fill="#111">grassland</text>
<polygon points="65.8,266.0 65.8,304.0 32.9,323.0 -0.0,304.0 0.0,266.0 32.9,247.0" fill="#5F9EA0" stroke="#333333" stroke-width="2.00"/>
<text x="32.9" y="283.0" font-family="Arial" font-size="12" text-anchor="middle" fill="#111">-2,5</text>
<text x="32.9" y="301.0" font-family="Arial" font-size="11" text-anchor="middle" fill="#111">marsh</text>
<polygon points="131.6,266.0 131.6,304.0 98.7,323.0 65.8,304.0 65.8,266.0 98.7,247.0" fill="#5F9EA0" stroke="#333333" stroke-width="2.00"/>
<text x="98.7" y="283.0" font-family="Arial" font-size="12" text-anchor="middle" fill="#111">-1,5</text>
<text x="98.7" y="301.0" font-family="Arial" font-size="11" text-anchor="middle" fill="#111">marsh</text>
<polygon points="197.5,266.0 197.5,304.0 164.5,323.0 131.6,304.0 131.6,266.0 164.5,247.0" fill="#C2B280" stroke="#333333" stroke-width="2.00"/>
<text x="164.5" y="283.0" font-family="Arial" font-size="12" text-anchor="middle" fill="#111">0,5</text>
<text x="164.5" y="301.0" font-family="Arial" font-size="11" text-anchor="middle" fill="#111">hills</text>
<polygon points="263.3,266.0 263.3,304.0 230.4,323.0 197.5,304.0 197.5,266.0 230.4,247.0" fill="#C2B280" stroke="#333333" stroke-width="2.00"/>
<text x="230.4" y="283.0" font-family="Arial" font-size="12" text-anchor="middle" fill="#111">1,5</text>
<text x="230.4" y="301.0" font-family="Arial" font-size="11" text-anchor="middle" fill="#111">hills</text>
<polygon points="329.1,266.0 329.1,304.0 296.2,323.0 263.3,304.0 263.3,266.0 296.2,247.0" fill="#A9A9A9" stroke="#333333" stroke-width="2.00"/>
<text x="296.2" y="283.0" font-family="Arial" font-size="12" text-anchor="middle" fill="#111">2,5</text>
<text x="296.2" y="301.0" font-family="Arial" font-size="11" text-anchor="middle" fill="#111">mountains</text>
<polygon points="-230.4,323.0 -230.4,361.0 -263.3,380.0 -296.2,361.0 -296.2,323.0 -263.3,304.0" fill="#A9A9A9" stroke="#333333" stroke-width="2.00"/>
<text x="-263.3" y="340.0" font-family="Arial" font-size="12" text-anchor="middle" fill="#111">-7,6</text>
<text x="-263.3" y="358.0" font-family="Arial" font-size="11" text-anchor="middle" fill="#111">mountains</text>
<polygon points="-164.5,323.0 -164.5,361.0 -197.5,380.0 -230.4,361.0 -230.4,323.0 -197.5,304.0" fill="#9ACD32" stroke="#333333" stroke-width="2.00"/>
<text x="-197.5" y="340.0" font-family="Arial" font-size="12" text-anchor="middle" fill="#111">-6,6</text>
<text x="-197.5" y="358.0" font-family="Arial" font-size="11" text-anchor="middle" fill="#111">grassland</text>
<polygon points="-98.7,323.0 -98.7,361.0 -131.6,380.0 -164.5,361.0 -164.5,323.0 -131.6,304.0" fill="#2E8B57" stroke="#333333" stroke-width="2.00"/>
<text x="-131.6" y="340.0" font-family="Arial" font-size="12" text-anchor="middle" fill="#111">-5,6</text>
<text x="-131.6" y="358.0" font-family="Arial" font-size="11" text-anchor="middle" fill="#111">forest</text>
<polygon points="-32.9,323.0 -32.9,361.0 -65.8,380.0 -98.7,361.0 -98.7,323.0 -65.8,304.0" fill="#9ACD32" stroke="#333333" stroke-width="2.00"/>
<text x="-65.8" y="340.0" font-family="Arial" font-size="12" text-anchor="middle" fill="#111">-4,6</text>
<text x="-65.8" y="358.0" font-family="Arial" font-size="11" text-anchor="middle" fill="#111">grassland</text>
<polygon points="98.7,323.0 98.7,361.0 65.8,380.0 32.9,361.0 32.9,323.0 65.8,304.0" fill="#A9A9A9" stroke="#333333" stroke-width="2.00"/>
<text x="65.8" y="340.0" font-family="Arial" font-size="12" text-anchor="middle" fill="#111">-2,6</text>
<text x="65.8" y="358.0" font-family="Arial" font-size="11" text-anchor="middle" fill="#111">mountains</text>
<polygon points="164.5,323.0 164.5,361.0 131.6,380.0 98.7,361.0 98.7,323.0 131.6,304.0" fill="#C2B280" stroke="#333333" stroke-width="2.00"/>
<text x="131.6" y="340.0" font-family="Arial" font-size="12" text-anchor="middle" fill="#111">-1,6</text>
<text x="131.6" y="358.0" font-family="Arial" font-size="11" text-anchor="middle" fill="#111">hills</text>
<polygon points="230.4,323.0 230.4,361.0 197.5,380.0 164.5,361.0 164.5,323.0 197.5,304.0" fill="#C2B280" stroke="#333333" stroke-width="2.00"/>
<text x="197.5" y="340.0" font-family="Arial" font-size="12" text-anchor="middle" fill="#111">0,6</text>
<text x="197.5" y="358.0" font-family="Arial" font-size="11" text-anchor="middle" fill="#111">hills</text>
<polygon points="296.2,323.0 296.2,361.0 263.3,380.0 230.4,361.0 230.4,323.0 263.3,304.0" fill="#5F9EA0" stroke="#333333" stroke-width="2.00"/>
<text x="263.3" y="340.0" font-family="Arial" font-size="12" text-anchor="middle" fill="#111">1,6</text>
<text x="263.3" y="358.0" font-family="Arial" font-size="11" text-anchor="middle" fill="#111">marsh</text>
<polygon points="-197.5,380.0 -197.5,418.0 -230.4,437.0 -263.3,418.0 -263.3,380.0 -230.4,361.0" fill="#9ACD32" stroke="#333333" stroke-width="2.00"/>
<text x="-230.4" y="397.0" font-family="Arial" font-size="12" text-anchor="middle" fill="#111">-7,7</text>
<text x="-230.4" y="415.0" font-family="Arial" font-size="11" text-anchor="middle" fill="#111">grassland</text>
<polygon points="-131.6,380.0 -131.6,418.0 -164.5,437.0 -197.5,418.0 -197.5,380.0 -164.5,361.0" fill="#9ACD32" stroke="#333333" stroke-width="2.00"/>
<text x="-164.5" y="397.0" font-family="Arial" font-size="12" text-anchor="middle" fill="#111">-6,7</text>
<text x="-164.5" y="415.0" font-family="Arial" font-size="11" text-anchor="middle" fill="#111">grassland</text>
<polygon points="-65.8,380.0 -65.8,418.0 -98.7,437.0 -131.6,418.0 -131.6,380.0 -98.7,361.0" fill="#C2B280" stroke="#333333" stroke-width="2.00"/>
<text x="-98.7" y="397.0" font-family="Arial" font-size="12" text-anchor="middle" fill="#111">-5,7</text>
<text x="-98.7" y="415.0" font-family="Arial" font-size="11" text-anchor="middle" fill="#111">hills</text>
<polygon points="131.6,380.0 131.6,418.0 98.7,437.0 65.8,418.0 65.8,380.0 98.7,361.0" fill="#C2B280" stroke="#333333" stroke-width="2.00"/>
<text x="98.7" y="397.0" font-family="Arial" font-size="12" text-anchor="middle" fill="#111">-2,7</text>
<text x="98.7" y="415.0" font-family="Arial" font-size="11" text-anchor="middle" fill="#111">hills</text>
<polygon points="197.5,380.0 197.5,418.0 164.5,437.0 131.6,418.0 131.6,380.0 164.5,361.0" fill="#C2B280" stroke="#333333" stroke-width="2.00"/>
<text x="164.5" y="397.0" font-family="Arial" font-size="12" text-anchor="middle" fill="#111">-1,7</text>
<text x="164.5" y="415.0" font-family="Arial" font-size="11" text-anchor="middle" fill="#111">hills</text>
<polygon points="263.3,380.0 263.3,418.0 230.4,437.0 197.5,418.0 197.5,380.0 230.4,361.0" fill="#A9A9A9" stroke="#333333" stroke-width="2.00"/>
<text x="230.4" y="397.0" font-family="Arial" font-size="12" text-anchor="middle" fill="#111">0,7</text>
<text x="230.4" y="415.0" font-family="Arial" font-size="11" text-anchor="middle" fill="#111">mountains</text>
</svg>